solid Created by writeSTL.m 11-Dec-2021 13:02:04
facet normal 3.0807572167825151E-02 9.9952533409470123E-01 -6.8406551907042720E-17
outer loop
vertex -3.3270000000000000E-01 -6.1229999999999996E-01 4.5780000000000003E+00
vertex 1.7142757202774936E-01 -6.2783832206874690E-01 4.5780000000000003E+00
vertex -3.3270000000000005E-01 -6.1229999999999996E-01 4.5530000000000008E+00
endloop
endfacet
facet normal 3.0807572167825151E-02 9.9952533409470123E-01 0.0000000000000000E+00
outer loop
vertex 1.7142757202774936E-01 -6.2783832206874690E-01 4.5780000000000003E+00
vertex 1.7142757202774936E-01 -6.2783832206874690E-01 4.5530000000000008E+00
vertex -3.3270000000000005E-01 -6.1229999999999996E-01 4.5530000000000008E+00
endloop
endfacet
facet normal 3.0807572167825151E-02 9.9952533409470135E-01 6.8406551907040292E-17
outer loop
vertex -3.3270000000000005E-01 -6.1229999999999996E-01 4.5530000000000008E+00
vertex 1.7142757202774936E-01 -6.2783832206874690E-01 4.5530000000000008E+00
vertex -3.3270000000000000E-01 -6.1229999999999996E-01 4.5280000000000005E+00
endloop
endfacet
facet normal 3.0807572167825151E-02 9.9952533409470135E-01 3.4203275953520146E-17
outer loop
vertex 1.7142757202774936E-01 -6.2783832206874690E-01 4.5530000000000008E+00
vertex 1.7142757202774939E-01 -6.2783832206874690E-01 4.5280000000000005E+00
vertex -3.3270000000000000E-01 -6.1229999999999996E-01 4.5280000000000005E+00
endloop
endfacet
facet normal 3.0807572167825151E-02 9.9952533409470135E-01 0.0000000000000000E+00
outer loop
vertex -3.3270000000000000E-01 -6.1229999999999996E-01 4.5280000000000005E+00
vertex 1.7142757202774939E-01 -6.2783832206874690E-01 4.5280000000000005E+00
vertex -3.3270000000000000E-01 -6.1229999999999996E-01 4.5030000000000001E+00
endloop
endfacet
facet normal 3.0807572167825155E-02 9.9952533409470135E-01 -6.8406551907040304E-17
outer loop
vertex 1.7142757202774939E-01 -6.2783832206874690E-01 4.5280000000000005E+00
vertex 1.7142757202774933E-01 -6.2783832206874690E-01 4.5030000000000001E+00
vertex -3.3270000000000000E-01 -6.1229999999999996E-01 4.5030000000000001E+00
endloop
endfacet
facet normal 3.0807572167825151E-02 9.9952533409470135E-01 0.0000000000000000E+00
outer loop
vertex -3.3270000000000000E-01 -6.1229999999999996E-01 4.5030000000000001E+00
vertex 1.7142757202774933E-01 -6.2783832206874690E-01 4.5030000000000001E+00
vertex -3.3270000000000000E-01 -6.1229999999999996E-01 4.4779999999999998E+00
endloop
endfacet
facet normal 3.0807572167825151E-02 9.9952533409470135E-01 3.4203275953520146E-17
outer loop
vertex 1.7142757202774933E-01 -6.2783832206874690E-01 4.5030000000000001E+00
vertex 1.7142757202774936E-01 -6.2783832206874690E-01 4.4779999999999998E+00
vertex -3.3270000000000000E-01 -6.1229999999999996E-01 4.4779999999999998E+00
endloop
endfacet
facet normal 3.0807572167825151E-02 9.9952533409470123E-01 0.0000000000000000E+00
outer loop
vertex -3.3270000000000000E-01 -6.1229999999999996E-01 4.4779999999999998E+00
vertex 1.7142757202774936E-01 -6.2783832206874690E-01 4.4779999999999998E+00
vertex -3.3270000000000000E-01 -6.1229999999999996E-01 4.4530000000000003E+00
endloop
endfacet
facet normal 3.0807572167825151E-02 9.9952533409470123E-01 0.0000000000000000E+00
outer loop
vertex 1.7142757202774936E-01 -6.2783832206874690E-01 4.4779999999999998E+00
vertex 1.7142757202774936E-01 -6.2783832206874690E-01 4.4530000000000003E+00
vertex -3.3270000000000000E-01 -6.1229999999999996E-01 4.4530000000000003E+00
endloop
endfacet
facet normal 3.0807572167825151E-02 9.9952533409470135E-01 0.0000000000000000E+00
outer loop
vertex -3.3270000000000000E-01 -6.1229999999999996E-01 4.4530000000000003E+00
vertex 1.7142757202774936E-01 -6.2783832206874690E-01 4.4530000000000003E+00
vertex -3.3270000000000000E-01 -6.1229999999999996E-01 4.4279999999999999E+00
endloop
endfacet
facet normal 3.0807572167825151E-02 9.9952533409470135E-01 0.0000000000000000E+00
outer loop
vertex 1.7142757202774936E-01 -6.2783832206874690E-01 4.4530000000000003E+00
vertex 1.7142757202774936E-01 -6.2783832206874690E-01 4.4279999999999999E+00
vertex -3.3270000000000000E-01 -6.1229999999999996E-01 4.4279999999999999E+00
endloop
endfacet
facet normal 3.0807572167825151E-02 9.9952533409470123E-01 0.0000000000000000E+00
outer loop
vertex -3.3270000000000000E-01 -6.1229999999999996E-01 4.4279999999999999E+00
vertex 1.7142757202774936E-01 -6.2783832206874690E-01 4.4279999999999999E+00
vertex -3.3270000000000000E-01 -6.1229999999999996E-01 4.4030000000000005E+00
endloop
endfacet
facet normal 3.0807572167825151E-02 9.9952533409470123E-01 0.0000000000000000E+00
outer loop
vertex 1.7142757202774936E-01 -6.2783832206874690E-01 4.4279999999999999E+00
vertex 1.7142757202774936E-01 -6.2783832206874690E-01 4.4030000000000005E+00
vertex -3.3270000000000000E-01 -6.1229999999999996E-01 4.4030000000000005E+00
endloop
endfacet
facet normal 3.0807572167825151E-02 9.9952533409470135E-01 0.0000000000000000E+00
outer loop
vertex -3.3270000000000000E-01 -6.1229999999999996E-01 4.4030000000000005E+00
vertex 1.7142757202774936E-01 -6.2783832206874690E-01 4.4030000000000005E+00
vertex -3.3270000000000000E-01 -6.1229999999999996E-01 4.3780000000000001E+00
endloop
endfacet
facet normal 3.0807572167825151E-02 9.9952533409470135E-01 0.0000000000000000E+00
outer loop
vertex 1.7142757202774936E-01 -6.2783832206874690E-01 4.4030000000000005E+00
vertex 1.7142757202774936E-01 -6.2783832206874690E-01 4.3780000000000001E+00
vertex -3.3270000000000000E-01 -6.1229999999999996E-01 4.3780000000000001E+00
endloop
endfacet
facet normal 3.0807572167825151E-02 9.9952533409470123E-01 0.0000000000000000E+00
outer loop
vertex -3.3270000000000000E-01 -6.1229999999999996E-01 4.3780000000000001E+00
vertex 1.7142757202774936E-01 -6.2783832206874690E-01 4.3780000000000001E+00
vertex -3.3270000000000000E-01 -6.1229999999999996E-01 4.3530000000000006E+00
endloop
endfacet
facet normal 3.0807572167825151E-02 9.9952533409470123E-01 0.0000000000000000E+00
outer loop
vertex 1.7142757202774936E-01 -6.2783832206874690E-01 4.3780000000000001E+00
vertex 1.7142757202774936E-01 -6.2783832206874690E-01 4.3530000000000006E+00
vertex -3.3270000000000000E-01 -6.1229999999999996E-01 4.3530000000000006E+00
endloop
endfacet
facet normal 3.0807572167825151E-02 9.9952533409470135E-01 0.0000000000000000E+00
outer loop
vertex -3.3270000000000000E-01 -6.1229999999999996E-01 4.3530000000000006E+00
vertex 1.7142757202774936E-01 -6.2783832206874690E-01 4.3530000000000006E+00
vertex -3.3270000000000000E-01 -6.1229999999999996E-01 4.3280000000000003E+00
endloop
endfacet
facet normal 3.0807572167825151E-02 9.9952533409470135E-01 0.0000000000000000E+00
outer loop
vertex 1.7142757202774936E-01 -6.2783832206874690E-01 4.3530000000000006E+00
vertex 1.7142757202774936E-01 -6.2783832206874690E-01 4.3280000000000003E+00
vertex -3.3270000000000000E-01 -6.1229999999999996E-01 4.3280000000000003E+00
endloop
endfacet
facet normal -5.8976516113522337E-01 8.0757479821447131E-01 0.0000000000000000E+00
outer loop
vertex 1.7142757202774936E-01 -6.2783832206874690E-01 4.5780000000000003E+00
vertex 5.3409592622744095E-01 -3.6298463814234005E-01 4.5780000000000003E+00
vertex 1.7142757202774936E-01 -6.2783832206874690E-01 4.5530000000000008E+00
endloop
endfacet
facet normal -5.8976516113522337E-01 8.0757479821447131E-01 0.0000000000000000E+00
outer loop
vertex 5.3409592622744095E-01 -3.6298463814234005E-01 4.5780000000000003E+00
vertex 5.3409592622744095E-01 -3.6298463814234005E-01 4.5530000000000008E+00
vertex 1.7142757202774936E-01 -6.2783832206874690E-01 4.5530000000000008E+00
endloop
endfacet
facet normal -5.8976516113522337E-01 8.0757479821447131E-01 -6.5477086101408122E-16
outer loop
vertex 1.7142757202774936E-01 -6.2783832206874690E-01 4.5530000000000008E+00
vertex 5.3409592622744095E-01 -3.6298463814234005E-01 4.5530000000000008E+00
vertex 1.7142757202774939E-01 -6.2783832206874690E-01 4.5280000000000005E+00
endloop
endfacet
facet normal -5.8976516113522315E-01 8.0757479821447131E-01 -1.7931762701694161E-15
outer loop
vertex 5.3409592622744095E-01 -3.6298463814234005E-01 4.5530000000000008E+00
vertex 5.3409592622744095E-01 -3.6298463814234011E-01 4.5280000000000005E+00
vertex 1.7142757202774939E-01 -6.2783832206874690E-01 4.5280000000000005E+00
endloop
endfacet
facet normal -5.8976516113522315E-01 8.0757479821447131E-01 1.3095417220281620E-15
outer loop
vertex 1.7142757202774939E-01 -6.2783832206874690E-01 4.5280000000000005E+00
vertex 5.3409592622744095E-01 -3.6298463814234011E-01 4.5280000000000005E+00
vertex 1.7142757202774933E-01 -6.2783832206874690E-01 4.5030000000000001E+00
endloop
endfacet
facet normal -5.8976516113522337E-01 8.0757479821447120E-01 3.5863525403388323E-15
outer loop
vertex 5.3409592622744095E-01 -3.6298463814234011E-01 4.5280000000000005E+00
vertex 5.3409592622744095E-01 -3.6298463814234000E-01 4.5030000000000001E+00
vertex 1.7142757202774933E-01 -6.2783832206874690E-01 4.5030000000000001E+00
endloop
endfacet
facet normal -5.8976516113522337E-01 8.0757479821447120E-01 -6.5477086101408122E-16
outer loop
vertex 1.7142757202774933E-01 -6.2783832206874690E-01 4.5030000000000001E+00
vertex 5.3409592622744095E-01 -3.6298463814234000E-01 4.5030000000000001E+00
vertex 1.7142757202774936E-01 -6.2783832206874690E-01 4.4779999999999998E+00
endloop
endfacet
facet normal -5.8976516113522337E-01 8.0757479821447131E-01 -1.7931762701694161E-15
outer loop
vertex 5.3409592622744095E-01 -3.6298463814234000E-01 4.5030000000000001E+00
vertex 5.3409592622744095E-01 -3.6298463814234005E-01 4.4779999999999998E+00
vertex 1.7142757202774936E-01 -6.2783832206874690E-01 4.4779999999999998E+00
endloop
endfacet
facet normal -5.8976516113522337E-01 8.0757479821447131E-01 0.0000000000000000E+00
outer loop
vertex 1.7142757202774936E-01 -6.2783832206874690E-01 4.4779999999999998E+00
vertex 5.3409592622744095E-01 -3.6298463814234005E-01 4.4779999999999998E+00
vertex 1.7142757202774936E-01 -6.2783832206874690E-01 4.4530000000000003E+00
endloop
endfacet
facet normal -5.8976516113522337E-01 8.0757479821447131E-01 0.0000000000000000E+00
outer loop
vertex 5.3409592622744095E-01 -3.6298463814234005E-01 4.4779999999999998E+00
vertex 5.3409592622744095E-01 -3.6298463814234005E-01 4.4530000000000003E+00
vertex 1.7142757202774936E-01 -6.2783832206874690E-01 4.4530000000000003E+00
endloop
endfacet
facet normal -5.8976516113522337E-01 8.0757479821447131E-01 0.0000000000000000E+00
outer loop
vertex 1.7142757202774936E-01 -6.2783832206874690E-01 4.4530000000000003E+00
vertex 5.3409592622744095E-01 -3.6298463814234005E-01 4.4530000000000003E+00
vertex 1.7142757202774936E-01 -6.2783832206874690E-01 4.4279999999999999E+00
endloop
endfacet
facet normal -5.8976516113522337E-01 8.0757479821447131E-01 0.0000000000000000E+00
outer loop
vertex 5.3409592622744095E-01 -3.6298463814234005E-01 4.4530000000000003E+00
vertex 5.3409592622744095E-01 -3.6298463814234005E-01 4.4279999999999999E+00
vertex 1.7142757202774936E-01 -6.2783832206874690E-01 4.4279999999999999E+00
endloop
endfacet
facet normal -5.8976516113522337E-01 8.0757479821447131E-01 0.0000000000000000E+00
outer loop
vertex 1.7142757202774936E-01 -6.2783832206874690E-01 4.4279999999999999E+00
vertex 5.3409592622744095E-01 -3.6298463814234005E-01 4.4279999999999999E+00
vertex 1.7142757202774936E-01 -6.2783832206874690E-01 4.4030000000000005E+00
endloop
endfacet
facet normal -5.8976516113522337E-01 8.0757479821447131E-01 0.0000000000000000E+00
outer loop
vertex 5.3409592622744095E-01 -3.6298463814234005E-01 4.4279999999999999E+00
vertex 5.3409592622744095E-01 -3.6298463814234005E-01 4.4030000000000005E+00
vertex 1.7142757202774936E-01 -6.2783832206874690E-01 4.4030000000000005E+00
endloop
endfacet
facet normal -5.8976516113522337E-01 8.0757479821447131E-01 0.0000000000000000E+00
outer loop
vertex 1.7142757202774936E-01 -6.2783832206874690E-01 4.4030000000000005E+00
vertex 5.3409592622744095E-01 -3.6298463814234005E-01 4.4030000000000005E+00
vertex 1.7142757202774936E-01 -6.2783832206874690E-01 4.3780000000000001E+00
endloop
endfacet
facet normal -5.8976516113522337E-01 8.0757479821447131E-01 0.0000000000000000E+00
outer loop
vertex 5.3409592622744095E-01 -3.6298463814234005E-01 4.4030000000000005E+00
vertex 5.3409592622744095E-01 -3.6298463814234005E-01 4.3780000000000001E+00
vertex 1.7142757202774936E-01 -6.2783832206874690E-01 4.3780000000000001E+00
endloop
endfacet
facet normal -5.8976516113522337E-01 8.0757479821447131E-01 0.0000000000000000E+00
outer loop
vertex 1.7142757202774936E-01 -6.2783832206874690E-01 4.3780000000000001E+00
vertex 5.3409592622744095E-01 -3.6298463814234005E-01 4.3780000000000001E+00
vertex 1.7142757202774936E-01 -6.2783832206874690E-01 4.3530000000000006E+00
endloop
endfacet
facet normal -5.8976516113522337E-01 8.0757479821447131E-01 0.0000000000000000E+00
outer loop
vertex 5.3409592622744095E-01 -3.6298463814234005E-01 4.3780000000000001E+00
vertex 5.3409592622744095E-01 -3.6298463814234005E-01 4.3530000000000006E+00
vertex 1.7142757202774936E-01 -6.2783832206874690E-01 4.3530000000000006E+00
endloop
endfacet
facet normal -5.8976516113522337E-01 8.0757479821447131E-01 0.0000000000000000E+00
outer loop
vertex 1.7142757202774936E-01 -6.2783832206874690E-01 4.3530000000000006E+00
vertex 5.3409592622744095E-01 -3.6298463814234005E-01 4.3530000000000006E+00
vertex 1.7142757202774936E-01 -6.2783832206874690E-01 4.3280000000000003E+00
endloop
endfacet
facet normal -5.8976516113522337E-01 8.0757479821447131E-01 0.0000000000000000E+00
outer loop
vertex 5.3409592622744095E-01 -3.6298463814234005E-01 4.3530000000000006E+00
vertex 5.3409592622744095E-01 -3.6298463814234005E-01 4.3280000000000003E+00
vertex 1.7142757202774936E-01 -6.2783832206874690E-01 4.3280000000000003E+00
endloop
endfacet
facet normal -9.7470930230479935E-01 2.2347656700533769E-01 0.0000000000000000E+00
outer loop
vertex 5.3409592622744095E-01 -3.6298463814234005E-01 4.5780000000000003E+00
vertex 6.2863340664980571E-01 4.9347459217719568E-02 4.5780000000000003E+00
vertex 5.3409592622744095E-01 -3.6298463814234005E-01 4.5530000000000008E+00
endloop
endfacet
facet normal -9.7470930230479935E-01 2.2347656700533769E-01 0.0000000000000000E+00
outer loop
vertex 6.2863340664980571E-01 4.9347459217719568E-02 4.5780000000000003E+00
vertex 6.2863340664980571E-01 4.9347459217719568E-02 4.5530000000000008E+00
vertex 5.3409592622744095E-01 -3.6298463814234005E-01 4.5530000000000008E+00
endloop
endfacet
facet normal -9.7470930230479924E-01 2.2347656700533766E-01 -4.9621766030701789E-16
outer loop
vertex 5.3409592622744095E-01 -3.6298463814234005E-01 4.5530000000000008E+00
vertex 6.2863340664980571E-01 4.9347459217719568E-02 4.5530000000000008E+00
vertex 5.3409592622744095E-01 -3.6298463814234011E-01 4.5280000000000005E+00
endloop
endfacet
facet normal -9.7470930230479946E-01 2.2347656700533766E-01 6.2027207538377237E-17
outer loop
vertex 6.2863340664980571E-01 4.9347459217719568E-02 4.5530000000000008E+00
vertex 6.2863340664980571E-01 4.9347459217719575E-02 4.5280000000000005E+00
vertex 5.3409592622744095E-01 -3.6298463814234011E-01 4.5280000000000005E+00
endloop
endfacet
facet normal -9.7470930230479946E-01 2.2347656700533766E-01 9.9243532061403578E-16
outer loop
vertex 5.3409592622744095E-01 -3.6298463814234011E-01 4.5280000000000005E+00
vertex 6.2863340664980571E-01 4.9347459217719575E-02 4.5280000000000005E+00
vertex 5.3409592622744095E-01 -3.6298463814234000E-01 4.5030000000000001E+00
endloop
endfacet
facet normal -9.7470930230479924E-01 2.2347656700533766E-01 -6.2027207538377237E-17
outer loop
vertex 6.2863340664980571E-01 4.9347459217719575E-02 4.5280000000000005E+00
vertex 6.2863340664980571E-01 4.9347459217719568E-02 4.5030000000000001E+00
vertex 5.3409592622744095E-01 -3.6298463814234000E-01 4.5030000000000001E+00
endloop
endfacet
facet normal -9.7470930230479924E-01 2.2347656700533769E-01 -4.9621766030701789E-16
outer loop
vertex 5.3409592622744095E-01 -3.6298463814234000E-01 4.5030000000000001E+00
vertex 6.2863340664980571E-01 4.9347459217719568E-02 4.5030000000000001E+00
vertex 5.3409592622744095E-01 -3.6298463814234005E-01 4.4779999999999998E+00
endloop
endfacet
facet normal -9.7470930230479924E-01 2.2347656700533766E-01 0.0000000000000000E+00
outer loop
vertex 6.2863340664980571E-01 4.9347459217719568E-02 4.5030000000000001E+00
vertex 6.2863340664980571E-01 4.9347459217719568E-02 4.4779999999999998E+00
vertex 5.3409592622744095E-01 -3.6298463814234005E-01 4.4779999999999998E+00
endloop
endfacet
facet normal -9.7470930230479935E-01 2.2347656700533769E-01 0.0000000000000000E+00
outer loop
vertex 5.3409592622744095E-01 -3.6298463814234005E-01 4.4779999999999998E+00
vertex 6.2863340664980571E-01 4.9347459217719568E-02 4.4779999999999998E+00
vertex 5.3409592622744095E-01 -3.6298463814234005E-01 4.4530000000000003E+00
endloop
endfacet
facet normal -9.7470930230479935E-01 2.2347656700533769E-01 0.0000000000000000E+00
outer loop
vertex 6.2863340664980571E-01 4.9347459217719568E-02 4.4779999999999998E+00
vertex 6.2863340664980571E-01 4.9347459217719568E-02 4.4530000000000003E+00
vertex 5.3409592622744095E-01 -3.6298463814234005E-01 4.4530000000000003E+00
endloop
endfacet
facet normal -9.7470930230479924E-01 2.2347656700533766E-01 0.0000000000000000E+00
outer loop
vertex 5.3409592622744095E-01 -3.6298463814234005E-01 4.4530000000000003E+00
vertex 6.2863340664980571E-01 4.9347459217719568E-02 4.4530000000000003E+00
vertex 5.3409592622744095E-01 -3.6298463814234005E-01 4.4279999999999999E+00
endloop
endfacet
facet normal -9.7470930230479924E-01 2.2347656700533766E-01 0.0000000000000000E+00
outer loop
vertex 6.2863340664980571E-01 4.9347459217719568E-02 4.4530000000000003E+00
vertex 6.2863340664980571E-01 4.9347459217719568E-02 4.4279999999999999E+00
vertex 5.3409592622744095E-01 -3.6298463814234005E-01 4.4279999999999999E+00
endloop
endfacet
facet normal -9.7470930230479935E-01 2.2347656700533769E-01 0.0000000000000000E+00
outer loop
vertex 5.3409592622744095E-01 -3.6298463814234005E-01 4.4279999999999999E+00
vertex 6.2863340664980571E-01 4.9347459217719568E-02 4.4279999999999999E+00
vertex 5.3409592622744095E-01 -3.6298463814234005E-01 4.4030000000000005E+00
endloop
endfacet
facet normal -9.7470930230479935E-01 2.2347656700533769E-01 0.0000000000000000E+00
outer loop
vertex 6.2863340664980571E-01 4.9347459217719568E-02 4.4279999999999999E+00
vertex 6.2863340664980571E-01 4.9347459217719568E-02 4.4030000000000005E+00
vertex 5.3409592622744095E-01 -3.6298463814234005E-01 4.4030000000000005E+00
endloop
endfacet
facet normal -9.7470930230479924E-01 2.2347656700533766E-01 0.0000000000000000E+00
outer loop
vertex 5.3409592622744095E-01 -3.6298463814234005E-01 4.4030000000000005E+00
vertex 6.2863340664980571E-01 4.9347459217719568E-02 4.4030000000000005E+00
vertex 5.3409592622744095E-01 -3.6298463814234005E-01 4.3780000000000001E+00
endloop
endfacet
facet normal -9.7470930230479924E-01 2.2347656700533766E-01 0.0000000000000000E+00
outer loop
vertex 6.2863340664980571E-01 4.9347459217719568E-02 4.4030000000000005E+00
vertex 6.2863340664980571E-01 4.9347459217719568E-02 4.3780000000000001E+00
vertex 5.3409592622744095E-01 -3.6298463814234005E-01 4.3780000000000001E+00
endloop
endfacet
facet normal -9.7470930230479935E-01 2.2347656700533769E-01 0.0000000000000000E+00
outer loop
vertex 5.3409592622744095E-01 -3.6298463814234005E-01 4.3780000000000001E+00
vertex 6.2863340664980571E-01 4.9347459217719568E-02 4.3780000000000001E+00
vertex 5.3409592622744095E-01 -3.6298463814234005E-01 4.3530000000000006E+00
endloop
endfacet
facet normal -9.7470930230479935E-01 2.2347656700533769E-01 0.0000000000000000E+00
outer loop
vertex 6.2863340664980571E-01 4.9347459217719568E-02 4.3780000000000001E+00
vertex 6.2863340664980571E-01 4.9347459217719568E-02 4.3530000000000006E+00
vertex 5.3409592622744095E-01 -3.6298463814234005E-01 4.3530000000000006E+00
endloop
endfacet
facet normal -9.7470930230479924E-01 2.2347656700533766E-01 0.0000000000000000E+00
outer loop
vertex 5.3409592622744095E-01 -3.6298463814234005E-01 4.3530000000000006E+00
vertex 6.2863340664980571E-01 4.9347459217719568E-02 4.3530000000000006E+00
vertex 5.3409592622744095E-01 -3.6298463814234005E-01 4.3280000000000003E+00
endloop
endfacet
facet normal -9.7470930230479924E-01 2.2347656700533766E-01 0.0000000000000000E+00
outer loop
vertex 6.2863340664980571E-01 4.9347459217719568E-02 4.3530000000000006E+00
vertex 6.2863340664980571E-01 4.9347459217719568E-02 4.3280000000000003E+00
vertex 5.3409592622744095E-01 -3.6298463814234005E-01 4.3280000000000003E+00
endloop
endfacet
facet normal -9.0142696986673743E-01 -4.3293119314375117E-01 -0.0000000000000000E+00
outer loop
vertex 6.2863340664980571E-01 4.9347459217719568E-02 4.5780000000000003E+00
vertex 4.3025417625916934E-01 4.6240244663265873E-01 4.5780000000000003E+00
vertex 6.2863340664980571E-01 4.9347459217719568E-02 4.5530000000000008E+00
endloop
endfacet
facet normal -9.0142696986673743E-01 -4.3293119314375117E-01 -0.0000000000000000E+00
outer loop
vertex 4.3025417625916934E-01 4.6240244663265873E-01 4.5780000000000003E+00
vertex 4.3025417625916934E-01 4.6240244663265873E-01 4.5530000000000008E+00
vertex 6.2863340664980571E-01 4.9347459217719568E-02 4.5530000000000008E+00
endloop
endfacet
facet normal -9.0142696986673754E-01 -4.3293119314375117E-01 -1.2016254467665661E-16
outer loop
vertex 6.2863340664980571E-01 4.9347459217719568E-02 4.5530000000000008E+00
vertex 4.3025417625916934E-01 4.6240244663265873E-01 4.5530000000000008E+00
vertex 6.2863340664980571E-01 4.9347459217719575E-02 4.5280000000000005E+00
endloop
endfacet
facet normal -9.0142696986673754E-01 -4.3293119314375106E-01 -2.0015699539282499E-15
outer loop
vertex 4.3025417625916934E-01 4.6240244663265873E-01 4.5530000000000008E+00
vertex 4.3025417625916940E-01 4.6240244663265873E-01 4.5280000000000005E+00
vertex 6.2863340664980571E-01 4.9347459217719575E-02 4.5280000000000005E+00
endloop
endfacet
facet normal -9.0142696986673754E-01 -4.3293119314375106E-01 1.2016254467665659E-16
outer loop
vertex 6.2863340664980571E-01 4.9347459217719575E-02 4.5280000000000005E+00
vertex 4.3025417625916940E-01 4.6240244663265873E-01 4.5280000000000005E+00
vertex 6.2863340664980571E-01 4.9347459217719568E-02 4.5030000000000001E+00
endloop
endfacet
facet normal -9.0142696986673743E-01 -4.3293119314375123E-01 4.0031399078564991E-15
outer loop
vertex 4.3025417625916940E-01 4.6240244663265873E-01 4.5280000000000005E+00
vertex 4.3025417625916929E-01 4.6240244663265873E-01 4.5030000000000001E+00
vertex 6.2863340664980571E-01 4.9347459217719568E-02 4.5030000000000001E+00
endloop
endfacet
facet normal -9.0142696986673743E-01 -4.3293119314375128E-01 -0.0000000000000000E+00
outer loop
vertex 6.2863340664980571E-01 4.9347459217719568E-02 4.5030000000000001E+00
vertex 4.3025417625916929E-01 4.6240244663265873E-01 4.5030000000000001E+00
vertex 6.2863340664980571E-01 4.9347459217719568E-02 4.4779999999999998E+00
endloop
endfacet
facet normal -9.0142696986673754E-01 -4.3293119314375117E-01 -2.0015699539282499E-15
outer loop
vertex 4.3025417625916929E-01 4.6240244663265873E-01 4.5030000000000001E+00
vertex 4.3025417625916934E-01 4.6240244663265873E-01 4.4779999999999998E+00
vertex 6.2863340664980571E-01 4.9347459217719568E-02 4.4779999999999998E+00
endloop
endfacet
facet normal -9.0142696986673743E-01 -4.3293119314375117E-01 -0.0000000000000000E+00
outer loop
vertex 6.2863340664980571E-01 4.9347459217719568E-02 4.4779999999999998E+00
vertex 4.3025417625916934E-01 4.6240244663265873E-01 4.4779999999999998E+00
vertex 6.2863340664980571E-01 4.9347459217719568E-02 4.4530000000000003E+00
endloop
endfacet
facet normal -9.0142696986673743E-01 -4.3293119314375117E-01 -0.0000000000000000E+00
outer loop
vertex 4.3025417625916934E-01 4.6240244663265873E-01 4.4779999999999998E+00
vertex 4.3025417625916934E-01 4.6240244663265873E-01 4.4530000000000003E+00
vertex 6.2863340664980571E-01 4.9347459217719568E-02 4.4530000000000003E+00
endloop
endfacet
facet normal -9.0142696986673754E-01 -4.3293119314375117E-01 -0.0000000000000000E+00
outer loop
vertex 6.2863340664980571E-01 4.9347459217719568E-02 4.4530000000000003E+00
vertex 4.3025417625916934E-01 4.6240244663265873E-01 4.4530000000000003E+00
vertex 6.2863340664980571E-01 4.9347459217719568E-02 4.4279999999999999E+00
endloop
endfacet
facet normal -9.0142696986673754E-01 -4.3293119314375117E-01 -0.0000000000000000E+00
outer loop
vertex 4.3025417625916934E-01 4.6240244663265873E-01 4.4530000000000003E+00
vertex 4.3025417625916934E-01 4.6240244663265873E-01 4.4279999999999999E+00
vertex 6.2863340664980571E-01 4.9347459217719568E-02 4.4279999999999999E+00
endloop
endfacet
facet normal -9.0142696986673743E-01 -4.3293119314375117E-01 -0.0000000000000000E+00
outer loop
vertex 6.2863340664980571E-01 4.9347459217719568E-02 4.4279999999999999E+00
vertex 4.3025417625916934E-01 4.6240244663265873E-01 4.4279999999999999E+00
vertex 6.2863340664980571E-01 4.9347459217719568E-02 4.4030000000000005E+00
endloop
endfacet
facet normal -9.0142696986673743E-01 -4.3293119314375117E-01 -0.0000000000000000E+00
outer loop
vertex 4.3025417625916934E-01 4.6240244663265873E-01 4.4279999999999999E+00
vertex 4.3025417625916934E-01 4.6240244663265873E-01 4.4030000000000005E+00
vertex 6.2863340664980571E-01 4.9347459217719568E-02 4.4030000000000005E+00
endloop
endfacet
facet normal -9.0142696986673754E-01 -4.3293119314375117E-01 -0.0000000000000000E+00
outer loop
vertex 6.2863340664980571E-01 4.9347459217719568E-02 4.4030000000000005E+00
vertex 4.3025417625916934E-01 4.6240244663265873E-01 4.4030000000000005E+00
vertex 6.2863340664980571E-01 4.9347459217719568E-02 4.3780000000000001E+00
endloop
endfacet
facet normal -9.0142696986673754E-01 -4.3293119314375106E-01 -2.0015699539282499E-15
outer loop
vertex 4.3025417625916934E-01 4.6240244663265873E-01 4.4030000000000005E+00
vertex 4.3025417625916940E-01 4.6240244663265873E-01 4.3780000000000001E+00
vertex 6.2863340664980571E-01 4.9347459217719568E-02 4.3780000000000001E+00
endloop
endfacet
facet normal -9.0142696986673743E-01 -4.3293119314375106E-01 -0.0000000000000000E+00
outer loop
vertex 6.2863340664980571E-01 4.9347459217719568E-02 4.3780000000000001E+00
vertex 4.3025417625916940E-01 4.6240244663265873E-01 4.3780000000000001E+00
vertex 6.2863340664980571E-01 4.9347459217719568E-02 4.3530000000000006E+00
endloop
endfacet
facet normal -9.0142696986673743E-01 -4.3293119314375117E-01 2.0015699539283209E-15
outer loop
vertex 4.3025417625916940E-01 4.6240244663265873E-01 4.3780000000000001E+00
vertex 4.3025417625916934E-01 4.6240244663265873E-01 4.3530000000000006E+00
vertex 6.2863340664980571E-01 4.9347459217719568E-02 4.3530000000000006E+00
endloop
endfacet
facet normal -9.0142696986673754E-01 -4.3293119314375117E-01 -0.0000000000000000E+00
outer loop
vertex 6.2863340664980571E-01 4.9347459217719568E-02 4.3530000000000006E+00
vertex 4.3025417625916934E-01 4.6240244663265873E-01 4.3530000000000006E+00
vertex 6.2863340664980571E-01 4.9347459217719568E-02 4.3280000000000003E+00
endloop
endfacet
facet normal -9.0142696986673754E-01 -4.3293119314375117E-01 -0.0000000000000000E+00
outer loop
vertex 4.3025417625916934E-01 4.6240244663265873E-01 4.3530000000000006E+00
vertex 4.3025417625916934E-01 4.6240244663265873E-01 4.3280000000000003E+00
vertex 6.2863340664980571E-01 4.9347459217719568E-02 4.3280000000000003E+00
endloop
endfacet
facet normal -3.8112609282991078E-01 -9.2452306697248310E-01 -0.0000000000000000E+00
outer loop
vertex 4.3025417625916934E-01 4.6240244663265873E-01 4.5780000000000003E+00
vertex 8.7590871206900105E-03 6.3615990300029401E-01 4.5780000000000003E+00
vertex 4.3025417625916934E-01 4.6240244663265873E-01 4.5530000000000008E+00
endloop
endfacet
facet normal -3.8112609282991078E-01 -9.2452306697248310E-01 -0.0000000000000000E+00
outer loop
vertex 8.7590871206900105E-03 6.3615990300029401E-01 4.5780000000000003E+00
vertex 8.7590871206900105E-03 6.3615990300029401E-01 4.5530000000000008E+00
vertex 4.3025417625916934E-01 4.6240244663265873E-01 4.5530000000000008E+00
endloop
endfacet
facet normal -3.8112609282991078E-01 -9.2452306697248321E-01 -8.4626992709037151E-16
outer loop
vertex 4.3025417625916934E-01 4.6240244663265873E-01 4.5530000000000008E+00
vertex 8.7590871206900105E-03 6.3615990300029401E-01 4.5530000000000008E+00
vertex 4.3025417625916940E-01 4.6240244663265873E-01 4.5280000000000005E+00
endloop
endfacet
facet normal -3.8112609282991067E-01 -9.2452306697248299E-01 -0.0000000000000000E+00
outer loop
vertex 8.7590871206900105E-03 6.3615990300029401E-01 4.5530000000000008E+00
vertex 8.7590871206900105E-03 6.3615990300029401E-01 4.5280000000000005E+00
vertex 4.3025417625916940E-01 4.6240244663265873E-01 4.5280000000000005E+00
endloop
endfacet
facet normal -3.8112609282991067E-01 -9.2452306697248299E-01 1.6925398541807424E-15
outer loop
vertex 4.3025417625916940E-01 4.6240244663265873E-01 4.5280000000000005E+00
vertex 8.7590871206900105E-03 6.3615990300029401E-01 4.5280000000000005E+00
vertex 4.3025417625916929E-01 4.6240244663265873E-01 4.5030000000000001E+00
endloop
endfacet
facet normal -3.8112609282991078E-01 -9.2452306697248299E-01 -0.0000000000000000E+00
outer loop
vertex 8.7590871206900105E-03 6.3615990300029401E-01 4.5280000000000005E+00
vertex 8.7590871206900105E-03 6.3615990300029401E-01 4.5030000000000001E+00
vertex 4.3025417625916929E-01 4.6240244663265873E-01 4.5030000000000001E+00
endloop
endfacet
facet normal -3.8112609282991078E-01 -9.2452306697248299E-01 -8.4626992709037151E-16
outer loop
vertex 4.3025417625916929E-01 4.6240244663265873E-01 4.5030000000000001E+00
vertex 8.7590871206900105E-03 6.3615990300029401E-01 4.5030000000000001E+00
vertex 4.3025417625916934E-01 4.6240244663265873E-01 4.4779999999999998E+00
endloop
endfacet
facet normal -3.8112609282991078E-01 -9.2452306697248321E-01 -0.0000000000000000E+00
outer loop
vertex 8.7590871206900105E-03 6.3615990300029401E-01 4.5030000000000001E+00
vertex 8.7590871206900105E-03 6.3615990300029401E-01 4.4779999999999998E+00
vertex 4.3025417625916934E-01 4.6240244663265873E-01 4.4779999999999998E+00
endloop
endfacet
facet normal -3.8112609282991078E-01 -9.2452306697248310E-01 -0.0000000000000000E+00
outer loop
vertex 4.3025417625916934E-01 4.6240244663265873E-01 4.4779999999999998E+00
vertex 8.7590871206900105E-03 6.3615990300029401E-01 4.4779999999999998E+00
vertex 4.3025417625916934E-01 4.6240244663265873E-01 4.4530000000000003E+00
endloop
endfacet
facet normal -3.8112609282991078E-01 -9.2452306697248310E-01 -0.0000000000000000E+00
outer loop
vertex 8.7590871206900105E-03 6.3615990300029401E-01 4.4779999999999998E+00
vertex 8.7590871206900105E-03 6.3615990300029401E-01 4.4530000000000003E+00
vertex 4.3025417625916934E-01 4.6240244663265873E-01 4.4530000000000003E+00
endloop
endfacet
facet normal -3.8112609282991078E-01 -9.2452306697248321E-01 -0.0000000000000000E+00
outer loop
vertex 4.3025417625916934E-01 4.6240244663265873E-01 4.4530000000000003E+00
vertex 8.7590871206900105E-03 6.3615990300029401E-01 4.4530000000000003E+00
vertex 4.3025417625916934E-01 4.6240244663265873E-01 4.4279999999999999E+00
endloop
endfacet
facet normal -3.8112609282991078E-01 -9.2452306697248321E-01 -0.0000000000000000E+00
outer loop
vertex 8.7590871206900105E-03 6.3615990300029401E-01 4.4530000000000003E+00
vertex 8.7590871206900105E-03 6.3615990300029401E-01 4.4279999999999999E+00
vertex 4.3025417625916934E-01 4.6240244663265873E-01 4.4279999999999999E+00
endloop
endfacet
facet normal -3.8112609282991078E-01 -9.2452306697248310E-01 -0.0000000000000000E+00
outer loop
vertex 4.3025417625916934E-01 4.6240244663265873E-01 4.4279999999999999E+00
vertex 8.7590871206900105E-03 6.3615990300029401E-01 4.4279999999999999E+00
vertex 4.3025417625916934E-01 4.6240244663265873E-01 4.4030000000000005E+00
endloop
endfacet
facet normal -3.8112609282991078E-01 -9.2452306697248310E-01 -0.0000000000000000E+00
outer loop
vertex 8.7590871206900105E-03 6.3615990300029401E-01 4.4279999999999999E+00
vertex 8.7590871206900105E-03 6.3615990300029401E-01 4.4030000000000005E+00
vertex 4.3025417625916934E-01 4.6240244663265873E-01 4.4030000000000005E+00
endloop
endfacet
facet normal -3.8112609282991078E-01 -9.2452306697248321E-01 -8.4626992709037151E-16
outer loop
vertex 4.3025417625916934E-01 4.6240244663265873E-01 4.4030000000000005E+00
vertex 8.7590871206900105E-03 6.3615990300029401E-01 4.4030000000000005E+00
vertex 4.3025417625916940E-01 4.6240244663265873E-01 4.3780000000000001E+00
endloop
endfacet
facet normal -3.8112609282991067E-01 -9.2452306697248299E-01 -0.0000000000000000E+00
outer loop
vertex 8.7590871206900105E-03 6.3615990300029401E-01 4.4030000000000005E+00
vertex 8.7590871206900105E-03 6.3615990300029401E-01 4.3780000000000001E+00
vertex 4.3025417625916940E-01 4.6240244663265873E-01 4.3780000000000001E+00
endloop
endfacet
facet normal -3.8112609282991067E-01 -9.2452306697248310E-01 8.4626992709040139E-16
outer loop
vertex 4.3025417625916940E-01 4.6240244663265873E-01 4.3780000000000001E+00
vertex 8.7590871206900105E-03 6.3615990300029401E-01 4.3780000000000001E+00
vertex 4.3025417625916934E-01 4.6240244663265873E-01 4.3530000000000006E+00
endloop
endfacet
facet normal -3.8112609282991078E-01 -9.2452306697248310E-01 -0.0000000000000000E+00
outer loop
vertex 8.7590871206900105E-03 6.3615990300029401E-01 4.3780000000000001E+00
vertex 8.7590871206900105E-03 6.3615990300029401E-01 4.3530000000000006E+00
vertex 4.3025417625916934E-01 4.6240244663265873E-01 4.3530000000000006E+00
endloop
endfacet
facet normal -3.8112609282991078E-01 -9.2452306697248321E-01 -0.0000000000000000E+00
outer loop
vertex 4.3025417625916934E-01 4.6240244663265873E-01 4.3530000000000006E+00
vertex 8.7590871206900105E-03 6.3615990300029401E-01 4.3530000000000006E+00
vertex 4.3025417625916934E-01 4.6240244663265873E-01 4.3280000000000003E+00
endloop
endfacet
facet normal -3.8112609282991078E-01 -9.2452306697248321E-01 -0.0000000000000000E+00
outer loop
vertex 8.7590871206900105E-03 6.3615990300029401E-01 4.3530000000000006E+00
vertex 8.7590871206900105E-03 6.3615990300029401E-01 4.3280000000000003E+00
vertex 4.3025417625916934E-01 4.6240244663265873E-01 4.3280000000000003E+00
endloop
endfacet
facet normal 3.2792773879950371E-01 -9.4470280941989604E-01 0.0000000000000000E+00
outer loop
vertex 8.7590871206900105E-03 6.3615990300029401E-01 4.5780000000000003E+00
vertex -3.8014386601224348E-01 5.0116288090861150E-01 4.5780000000000003E+00
vertex 8.7590871206900105E-03 6.3615990300029401E-01 4.5530000000000008E+00
endloop
endfacet
facet normal 3.2792773879950371E-01 -9.4470280941989604E-01 0.0000000000000000E+00
outer loop
vertex -3.8014386601224348E-01 5.0116288090861150E-01 4.5780000000000003E+00
vertex -3.8014386601224348E-01 5.0116288090861150E-01 4.5530000000000008E+00
vertex 8.7590871206900105E-03 6.3615990300029401E-01 4.5530000000000008E+00
endloop
endfacet
facet normal 3.2792773879950365E-01 -9.4470280941989604E-01 0.0000000000000000E+00
outer loop
vertex 8.7590871206900105E-03 6.3615990300029401E-01 4.5530000000000008E+00
vertex -3.8014386601224348E-01 5.0116288090861150E-01 4.5530000000000008E+00
vertex 8.7590871206900105E-03 6.3615990300029401E-01 4.5280000000000005E+00
endloop
endfacet
facet normal 3.2792773879950365E-01 -9.4470280941989604E-01 -7.2814585205693614E-16
outer loop
vertex -3.8014386601224348E-01 5.0116288090861150E-01 4.5530000000000008E+00
vertex -3.8014386601224354E-01 5.0116288090861150E-01 4.5280000000000005E+00
vertex 8.7590871206900105E-03 6.3615990300029401E-01 4.5280000000000005E+00
endloop
endfacet
facet normal 3.2792773879950365E-01 -9.4470280941989604E-01 0.0000000000000000E+00
outer loop
vertex 8.7590871206900105E-03 6.3615990300029401E-01 4.5280000000000005E+00
vertex -3.8014386601224354E-01 5.0116288090861150E-01 4.5280000000000005E+00
vertex 8.7590871206900105E-03 6.3615990300029401E-01 4.5030000000000001E+00
endloop
endfacet
facet normal 3.2792773879950371E-01 -9.4470280941989593E-01 1.4562917041138727E-15
outer loop
vertex -3.8014386601224354E-01 5.0116288090861150E-01 4.5280000000000005E+00
vertex -3.8014386601224343E-01 5.0116288090861150E-01 4.5030000000000001E+00
vertex 8.7590871206900105E-03 6.3615990300029401E-01 4.5030000000000001E+00
endloop
endfacet
facet normal 3.2792773879950371E-01 -9.4470280941989593E-01 0.0000000000000000E+00
outer loop
vertex 8.7590871206900105E-03 6.3615990300029401E-01 4.5030000000000001E+00
vertex -3.8014386601224343E-01 5.0116288090861150E-01 4.5030000000000001E+00
vertex 8.7590871206900105E-03 6.3615990300029401E-01 4.4779999999999998E+00
endloop
endfacet
facet normal 3.2792773879950365E-01 -9.4470280941989604E-01 -7.2814585205693624E-16
outer loop
vertex -3.8014386601224343E-01 5.0116288090861150E-01 4.5030000000000001E+00
vertex -3.8014386601224348E-01 5.0116288090861150E-01 4.4779999999999998E+00
vertex 8.7590871206900105E-03 6.3615990300029401E-01 4.4779999999999998E+00
endloop
endfacet
facet normal 3.2792773879950371E-01 -9.4470280941989604E-01 0.0000000000000000E+00
outer loop
vertex 8.7590871206900105E-03 6.3615990300029401E-01 4.4779999999999998E+00
vertex -3.8014386601224348E-01 5.0116288090861150E-01 4.4779999999999998E+00
vertex 8.7590871206900105E-03 6.3615990300029401E-01 4.4530000000000003E+00
endloop
endfacet
facet normal 3.2792773879950371E-01 -9.4470280941989604E-01 0.0000000000000000E+00
outer loop
vertex -3.8014386601224348E-01 5.0116288090861150E-01 4.4779999999999998E+00
vertex -3.8014386601224348E-01 5.0116288090861150E-01 4.4530000000000003E+00
vertex 8.7590871206900105E-03 6.3615990300029401E-01 4.4530000000000003E+00
endloop
endfacet
facet normal 3.2792773879950365E-01 -9.4470280941989604E-01 0.0000000000000000E+00
outer loop
vertex 8.7590871206900105E-03 6.3615990300029401E-01 4.4530000000000003E+00
vertex -3.8014386601224348E-01 5.0116288090861150E-01 4.4530000000000003E+00
vertex 8.7590871206900105E-03 6.3615990300029401E-01 4.4279999999999999E+00
endloop
endfacet
facet normal 3.2792773879950365E-01 -9.4470280941989604E-01 0.0000000000000000E+00
outer loop
vertex -3.8014386601224348E-01 5.0116288090861150E-01 4.4530000000000003E+00
vertex -3.8014386601224348E-01 5.0116288090861150E-01 4.4279999999999999E+00
vertex 8.7590871206900105E-03 6.3615990300029401E-01 4.4279999999999999E+00
endloop
endfacet
facet normal 3.2792773879950371E-01 -9.4470280941989604E-01 0.0000000000000000E+00
outer loop
vertex 8.7590871206900105E-03 6.3615990300029401E-01 4.4279999999999999E+00
vertex -3.8014386601224348E-01 5.0116288090861150E-01 4.4279999999999999E+00
vertex 8.7590871206900105E-03 6.3615990300029401E-01 4.4030000000000005E+00
endloop
endfacet
facet normal 3.2792773879950371E-01 -9.4470280941989604E-01 0.0000000000000000E+00
outer loop
vertex -3.8014386601224348E-01 5.0116288090861150E-01 4.4279999999999999E+00
vertex -3.8014386601224348E-01 5.0116288090861150E-01 4.4030000000000005E+00
vertex 8.7590871206900105E-03 6.3615990300029401E-01 4.4030000000000005E+00
endloop
endfacet
facet normal 3.2792773879950365E-01 -9.4470280941989604E-01 0.0000000000000000E+00
outer loop
vertex 8.7590871206900105E-03 6.3615990300029401E-01 4.4030000000000005E+00
vertex -3.8014386601224348E-01 5.0116288090861150E-01 4.4030000000000005E+00
vertex 8.7590871206900105E-03 6.3615990300029401E-01 4.3780000000000001E+00
endloop
endfacet
facet normal 3.2792773879950365E-01 -9.4470280941989604E-01 0.0000000000000000E+00
outer loop
vertex -3.8014386601224348E-01 5.0116288090861150E-01 4.4030000000000005E+00
vertex -3.8014386601224348E-01 5.0116288090861150E-01 4.3780000000000001E+00
vertex 8.7590871206900105E-03 6.3615990300029401E-01 4.3780000000000001E+00
endloop
endfacet
facet normal 3.2792773879950371E-01 -9.4470280941989604E-01 0.0000000000000000E+00
outer loop
vertex 8.7590871206900105E-03 6.3615990300029401E-01 4.3780000000000001E+00
vertex -3.8014386601224348E-01 5.0116288090861150E-01 4.3780000000000001E+00
vertex 8.7590871206900105E-03 6.3615990300029401E-01 4.3530000000000006E+00
endloop
endfacet
facet normal 3.2792773879950371E-01 -9.4470280941989604E-01 0.0000000000000000E+00
outer loop
vertex -3.8014386601224348E-01 5.0116288090861150E-01 4.3780000000000001E+00
vertex -3.8014386601224348E-01 5.0116288090861150E-01 4.3530000000000006E+00
vertex 8.7590871206900105E-03 6.3615990300029401E-01 4.3530000000000006E+00
endloop
endfacet
facet normal 3.2792773879950365E-01 -9.4470280941989604E-01 0.0000000000000000E+00
outer loop
vertex 8.7590871206900105E-03 6.3615990300029401E-01 4.3530000000000006E+00
vertex -3.8014386601224348E-01 5.0116288090861150E-01 4.3530000000000006E+00
vertex 8.7590871206900105E-03 6.3615990300029401E-01 4.3280000000000003E+00
endloop
endfacet
facet normal 3.2792773879950365E-01 -9.4470280941989604E-01 0.0000000000000000E+00
outer loop
vertex -3.8014386601224348E-01 5.0116288090861150E-01 4.3530000000000006E+00
vertex -3.8014386601224348E-01 5.0116288090861150E-01 4.3280000000000003E+00
vertex 8.7590871206900105E-03 6.3615990300029401E-01 4.3280000000000003E+00
endloop
endfacet
facet normal 6.9091043504173599E-01 -7.2294036458786759E-01 0.0000000000000000E+00
outer loop
vertex -3.8014386601224348E-01 5.0116288090861150E-01 4.5780000000000003E+00
vertex -6.5307872300027425E-01 2.4032042416301810E-01 4.5780000000000003E+00
vertex -3.8014386601224348E-01 5.0116288090861150E-01 4.5530000000000008E+00
endloop
endfacet
facet normal 6.9091043504173599E-01 -7.2294036458786759E-01 0.0000000000000000E+00
outer loop
vertex -6.5307872300027425E-01 2.4032042416301810E-01 4.5780000000000003E+00
vertex -6.5307872300027425E-01 2.4032042416301810E-01 4.5530000000000008E+00
vertex -3.8014386601224348E-01 5.0116288090861150E-01 4.5530000000000008E+00
endloop
endfacet
facet normal 6.9091043504173610E-01 -7.2294036458786770E-01 -1.5341293458742163E-15
outer loop
vertex -3.8014386601224348E-01 5.0116288090861150E-01 4.5530000000000008E+00
vertex -6.5307872300027425E-01 2.4032042416301810E-01 4.5530000000000008E+00
vertex -3.8014386601224354E-01 5.0116288090861150E-01 4.5280000000000005E+00
endloop
endfacet
facet normal 6.9091043504173599E-01 -7.2294036458786748E-01 -8.0262503819634428E-16
outer loop
vertex -6.5307872300027425E-01 2.4032042416301810E-01 4.5530000000000008E+00
vertex -6.5307872300027425E-01 2.4032042416301813E-01 4.5280000000000005E+00
vertex -3.8014386601224354E-01 5.0116288090861150E-01 4.5280000000000005E+00
endloop
endfacet
facet normal 6.9091043504173610E-01 -7.2294036458786748E-01 3.0682586917484326E-15
outer loop
vertex -3.8014386601224354E-01 5.0116288090861150E-01 4.5280000000000005E+00
vertex -6.5307872300027425E-01 2.4032042416301813E-01 4.5280000000000005E+00
vertex -3.8014386601224343E-01 5.0116288090861150E-01 4.5030000000000001E+00
endloop
endfacet
facet normal 6.9091043504173610E-01 -7.2294036458786770E-01 8.0262503819634457E-16
outer loop
vertex -6.5307872300027425E-01 2.4032042416301813E-01 4.5280000000000005E+00
vertex -6.5307872300027425E-01 2.4032042416301810E-01 4.5030000000000001E+00
vertex -3.8014386601224343E-01 5.0116288090861150E-01 4.5030000000000001E+00
endloop
endfacet
facet normal 6.9091043504173610E-01 -7.2294036458786781E-01 -1.5341293458742163E-15
outer loop
vertex -3.8014386601224343E-01 5.0116288090861150E-01 4.5030000000000001E+00
vertex -6.5307872300027425E-01 2.4032042416301810E-01 4.5030000000000001E+00
vertex -3.8014386601224348E-01 5.0116288090861150E-01 4.4779999999999998E+00
endloop
endfacet
facet normal 6.9091043504173599E-01 -7.2294036458786770E-01 -8.0262503819634448E-16
outer loop
vertex -6.5307872300027425E-01 2.4032042416301810E-01 4.5030000000000001E+00
vertex -6.5307872300027425E-01 2.4032042416301813E-01 4.4779999999999998E+00
vertex -3.8014386601224348E-01 5.0116288090861150E-01 4.4779999999999998E+00
endloop
endfacet
facet normal 6.9091043504173599E-01 -7.2294036458786759E-01 0.0000000000000000E+00
outer loop
vertex -3.8014386601224348E-01 5.0116288090861150E-01 4.4779999999999998E+00
vertex -6.5307872300027425E-01 2.4032042416301813E-01 4.4779999999999998E+00
vertex -3.8014386601224348E-01 5.0116288090861150E-01 4.4530000000000003E+00
endloop
endfacet
facet normal 6.9091043504173610E-01 -7.2294036458786759E-01 8.0262503819637288E-16
outer loop
vertex -6.5307872300027425E-01 2.4032042416301813E-01 4.4779999999999998E+00
vertex -6.5307872300027425E-01 2.4032042416301810E-01 4.4530000000000003E+00
vertex -3.8014386601224348E-01 5.0116288090861150E-01 4.4530000000000003E+00
endloop
endfacet
facet normal 6.9091043504173610E-01 -7.2294036458786770E-01 0.0000000000000000E+00
outer loop
vertex -3.8014386601224348E-01 5.0116288090861150E-01 4.4530000000000003E+00
vertex -6.5307872300027425E-01 2.4032042416301810E-01 4.4530000000000003E+00
vertex -3.8014386601224348E-01 5.0116288090861150E-01 4.4279999999999999E+00
endloop
endfacet
facet normal 6.9091043504173599E-01 -7.2294036458786770E-01 -8.0262503819634448E-16
outer loop
vertex -6.5307872300027425E-01 2.4032042416301810E-01 4.4530000000000003E+00
vertex -6.5307872300027425E-01 2.4032042416301813E-01 4.4279999999999999E+00
vertex -3.8014386601224348E-01 5.0116288090861150E-01 4.4279999999999999E+00
endloop
endfacet
facet normal 6.9091043504173599E-01 -7.2294036458786759E-01 0.0000000000000000E+00
outer loop
vertex -3.8014386601224348E-01 5.0116288090861150E-01 4.4279999999999999E+00
vertex -6.5307872300027425E-01 2.4032042416301813E-01 4.4279999999999999E+00
vertex -3.8014386601224348E-01 5.0116288090861150E-01 4.4030000000000005E+00
endloop
endfacet
facet normal 6.9091043504173599E-01 -7.2294036458786759E-01 0.0000000000000000E+00
outer loop
vertex -6.5307872300027425E-01 2.4032042416301813E-01 4.4279999999999999E+00
vertex -6.5307872300027425E-01 2.4032042416301813E-01 4.4030000000000005E+00
vertex -3.8014386601224348E-01 5.0116288090861150E-01 4.4030000000000005E+00
endloop
endfacet
facet normal 6.9091043504173610E-01 -7.2294036458786770E-01 0.0000000000000000E+00
outer loop
vertex -3.8014386601224348E-01 5.0116288090861150E-01 4.4030000000000005E+00
vertex -6.5307872300027425E-01 2.4032042416301813E-01 4.4030000000000005E+00
vertex -3.8014386601224348E-01 5.0116288090861150E-01 4.3780000000000001E+00
endloop
endfacet
facet normal 6.9091043504173622E-01 -7.2294036458786748E-01 3.8708837299447770E-15
outer loop
vertex -6.5307872300027425E-01 2.4032042416301813E-01 4.4030000000000005E+00
vertex -6.5307872300027414E-01 2.4032042416301810E-01 4.3780000000000001E+00
vertex -3.8014386601224348E-01 5.0116288090861150E-01 4.3780000000000001E+00
endloop
endfacet
facet normal 6.9091043504173622E-01 -7.2294036458786748E-01 0.0000000000000000E+00
outer loop
vertex -3.8014386601224348E-01 5.0116288090861150E-01 4.3780000000000001E+00
vertex -6.5307872300027414E-01 2.4032042416301810E-01 4.3780000000000001E+00
vertex -3.8014386601224348E-01 5.0116288090861150E-01 4.3530000000000006E+00
endloop
endfacet
facet normal 6.9091043504173599E-01 -7.2294036458786759E-01 -3.0682586917485411E-15
outer loop
vertex -6.5307872300027414E-01 2.4032042416301810E-01 4.3780000000000001E+00
vertex -6.5307872300027425E-01 2.4032042416301810E-01 4.3530000000000006E+00
vertex -3.8014386601224348E-01 5.0116288090861150E-01 4.3530000000000006E+00
endloop
endfacet
facet normal 6.9091043504173610E-01 -7.2294036458786770E-01 0.0000000000000000E+00
outer loop
vertex -3.8014386601224348E-01 5.0116288090861150E-01 4.3530000000000006E+00
vertex -6.5307872300027425E-01 2.4032042416301810E-01 4.3530000000000006E+00
vertex -3.8014386601224348E-01 5.0116288090861150E-01 4.3280000000000003E+00
endloop
endfacet
facet normal 6.9091043504173610E-01 -7.2294036458786770E-01 0.0000000000000000E+00
outer loop
vertex -6.5307872300027425E-01 2.4032042416301810E-01 4.3530000000000006E+00
vertex -6.5307872300027425E-01 2.4032042416301810E-01 4.3280000000000003E+00
vertex -3.8014386601224348E-01 5.0116288090861150E-01 4.3280000000000003E+00
endloop
endfacet
facet normal 9.9997922086315583E-01 6.4465372034946261E-03 0.0000000000000000E+00
outer loop
vertex -6.5307872300027425E-01 2.4032042416301810E-01 4.5780000000000003E+00
vertex -6.4985980572849422E-01 -2.5899421311428350E-01 4.5780000000000003E+00
vertex -6.5307872300027425E-01 2.4032042416301810E-01 4.5530000000000008E+00
endloop
endfacet
facet normal 9.9997922086315583E-01 6.4465372034946261E-03 0.0000000000000000E+00
outer loop
vertex -6.4985980572849422E-01 -2.5899421311428350E-01 4.5780000000000003E+00
vertex -6.4985980572849422E-01 -2.5899421311428350E-01 4.5530000000000008E+00
vertex -6.5307872300027425E-01 2.4032042416301810E-01 4.5530000000000008E+00
endloop
endfacet
facet normal 9.9997922086315560E-01 6.4465372034946261E-03 7.1570940324223004E-18
outer loop
vertex -6.5307872300027425E-01 2.4032042416301810E-01 4.5530000000000008E+00
vertex -6.4985980572849422E-01 -2.5899421311428350E-01 4.5530000000000008E+00
vertex -6.5307872300027425E-01 2.4032042416301813E-01 4.5280000000000005E+00
endloop
endfacet
facet normal 9.9997922086315560E-01 6.4465372034946261E-03 0.0000000000000000E+00
outer loop
vertex -6.4985980572849422E-01 -2.5899421311428350E-01 4.5530000000000008E+00
vertex -6.4985980572849422E-01 -2.5899421311428350E-01 4.5280000000000005E+00
vertex -6.5307872300027425E-01 2.4032042416301813E-01 4.5280000000000005E+00
endloop
endfacet
facet normal 9.9997922086315560E-01 6.4465372034946261E-03 -7.1570940324223004E-18
outer loop
vertex -6.5307872300027425E-01 2.4032042416301813E-01 4.5280000000000005E+00
vertex -6.4985980572849422E-01 -2.5899421311428350E-01 4.5280000000000005E+00
vertex -6.5307872300027425E-01 2.4032042416301810E-01 4.5030000000000001E+00
endloop
endfacet
facet normal 9.9997922086315560E-01 6.4465372034946261E-03 0.0000000000000000E+00
outer loop
vertex -6.4985980572849422E-01 -2.5899421311428350E-01 4.5280000000000005E+00
vertex -6.4985980572849422E-01 -2.5899421311428350E-01 4.5030000000000001E+00
vertex -6.5307872300027425E-01 2.4032042416301810E-01 4.5030000000000001E+00
endloop
endfacet
facet normal 9.9997922086315560E-01 6.4465372034946261E-03 7.1570940324223004E-18
outer loop
vertex -6.5307872300027425E-01 2.4032042416301810E-01 4.5030000000000001E+00
vertex -6.4985980572849422E-01 -2.5899421311428350E-01 4.5030000000000001E+00
vertex -6.5307872300027425E-01 2.4032042416301813E-01 4.4779999999999998E+00
endloop
endfacet
facet normal 9.9997922086315560E-01 6.4465372034946261E-03 0.0000000000000000E+00
outer loop
vertex -6.4985980572849422E-01 -2.5899421311428350E-01 4.5030000000000001E+00
vertex -6.4985980572849422E-01 -2.5899421311428350E-01 4.4779999999999998E+00
vertex -6.5307872300027425E-01 2.4032042416301813E-01 4.4779999999999998E+00
endloop
endfacet
facet normal 9.9997922086315583E-01 6.4465372034946261E-03 -7.1570940324225561E-18
outer loop
vertex -6.5307872300027425E-01 2.4032042416301813E-01 4.4779999999999998E+00
vertex -6.4985980572849422E-01 -2.5899421311428350E-01 4.4779999999999998E+00
vertex -6.5307872300027425E-01 2.4032042416301810E-01 4.4530000000000003E+00
endloop
endfacet
facet normal 9.9997922086315583E-01 6.4465372034946261E-03 0.0000000000000000E+00
outer loop
vertex -6.4985980572849422E-01 -2.5899421311428350E-01 4.4779999999999998E+00
vertex -6.4985980572849422E-01 -2.5899421311428350E-01 4.4530000000000003E+00
vertex -6.5307872300027425E-01 2.4032042416301810E-01 4.4530000000000003E+00
endloop
endfacet
facet normal 9.9997922086315560E-01 6.4465372034946261E-03 7.1570940324223004E-18
outer loop
vertex -6.5307872300027425E-01 2.4032042416301810E-01 4.4530000000000003E+00
vertex -6.4985980572849422E-01 -2.5899421311428350E-01 4.4530000000000003E+00
vertex -6.5307872300027425E-01 2.4032042416301813E-01 4.4279999999999999E+00
endloop
endfacet
facet normal 9.9997922086315560E-01 6.4465372034946261E-03 0.0000000000000000E+00
outer loop
vertex -6.4985980572849422E-01 -2.5899421311428350E-01 4.4530000000000003E+00
vertex -6.4985980572849422E-01 -2.5899421311428350E-01 4.4279999999999999E+00
vertex -6.5307872300027425E-01 2.4032042416301813E-01 4.4279999999999999E+00
endloop
endfacet
facet normal 9.9997922086315583E-01 6.4465372034946261E-03 0.0000000000000000E+00
outer loop
vertex -6.5307872300027425E-01 2.4032042416301813E-01 4.4279999999999999E+00
vertex -6.4985980572849422E-01 -2.5899421311428350E-01 4.4279999999999999E+00
vertex -6.5307872300027425E-01 2.4032042416301813E-01 4.4030000000000005E+00
endloop
endfacet
facet normal 9.9997922086315583E-01 6.4465372034946261E-03 0.0000000000000000E+00
outer loop
vertex -6.4985980572849422E-01 -2.5899421311428350E-01 4.4279999999999999E+00
vertex -6.4985980572849422E-01 -2.5899421311428350E-01 4.4030000000000005E+00
vertex -6.5307872300027425E-01 2.4032042416301813E-01 4.4030000000000005E+00
endloop
endfacet
facet normal 9.9997922086315560E-01 6.4465372034946261E-03 4.4336427265635147E-15
outer loop
vertex -6.5307872300027425E-01 2.4032042416301813E-01 4.4030000000000005E+00
vertex -6.4985980572849422E-01 -2.5899421311428350E-01 4.4030000000000005E+00
vertex -6.5307872300027414E-01 2.4032042416301810E-01 4.3780000000000001E+00
endloop
endfacet
facet normal 9.9997922086315560E-01 6.4465372034946270E-03 4.4407998205959370E-15
outer loop
vertex -6.4985980572849422E-01 -2.5899421311428350E-01 4.4030000000000005E+00
vertex -6.4985980572849411E-01 -2.5899421311428350E-01 4.3780000000000001E+00
vertex -6.5307872300027414E-01 2.4032042416301810E-01 4.3780000000000001E+00
endloop
endfacet
facet normal 9.9997922086315583E-01 6.4465372034946261E-03 -4.4407998205960956E-15
outer loop
vertex -6.5307872300027414E-01 2.4032042416301810E-01 4.3780000000000001E+00
vertex -6.4985980572849411E-01 -2.5899421311428350E-01 4.3780000000000001E+00
vertex -6.5307872300027425E-01 2.4032042416301810E-01 4.3530000000000006E+00
endloop
endfacet
facet normal 9.9997922086315583E-01 6.4465372034946261E-03 -4.4407998205960956E-15
outer loop
vertex -6.4985980572849411E-01 -2.5899421311428350E-01 4.3780000000000001E+00
vertex -6.4985980572849422E-01 -2.5899421311428350E-01 4.3530000000000006E+00
vertex -6.5307872300027425E-01 2.4032042416301810E-01 4.3530000000000006E+00
endloop
endfacet
facet normal 9.9997922086315560E-01 6.4465372034946261E-03 0.0000000000000000E+00
outer loop
vertex -6.5307872300027425E-01 2.4032042416301810E-01 4.3530000000000006E+00
vertex -6.4985980572849422E-01 -2.5899421311428350E-01 4.3530000000000006E+00
vertex -6.5307872300027425E-01 2.4032042416301810E-01 4.3280000000000003E+00
endloop
endfacet
facet normal 9.9997922086315560E-01 6.4465372034946261E-03 0.0000000000000000E+00
outer loop
vertex -6.4985980572849422E-01 -2.5899421311428350E-01 4.3530000000000006E+00
vertex -6.4985980572849422E-01 -2.5899421311428350E-01 4.3280000000000003E+00
vertex -6.5307872300027425E-01 2.4032042416301810E-01 4.3280000000000003E+00
endloop
endfacet
facet normal -4.3825661741774175E-01 8.9884989697366013E-01 0.0000000000000000E+00
outer loop
vertex -6.4985980572849422E-01 -2.5899421311428350E-01 4.5780000000000003E+00
vertex -3.3644638466677901E-01 -1.0618170656531209E-01 4.5780000000000003E+00
vertex -6.4985980572849422E-01 -2.5899421311428350E-01 4.5530000000000008E+00
endloop
endfacet
facet normal -4.3825661741774175E-01 8.9884989697366002E-01 4.7416324905198710E-16
outer loop
vertex -3.3644638466677901E-01 -1.0618170656531209E-01 4.5780000000000003E+00
vertex -3.3644638466677906E-01 -1.0618170656531210E-01 4.5530000000000008E+00
vertex -6.4985980572849422E-01 -2.5899421311428350E-01 4.5530000000000008E+00
endloop
endfacet
facet normal -4.3825661741774169E-01 8.9884989697366013E-01 0.0000000000000000E+00
outer loop
vertex -6.4985980572849422E-01 -2.5899421311428350E-01 4.5530000000000008E+00
vertex -3.3644638466677906E-01 -1.0618170656531210E-01 4.5530000000000008E+00
vertex -6.4985980572849422E-01 -2.5899421311428350E-01 4.5280000000000005E+00
endloop
endfacet
facet normal -4.3825661741774158E-01 8.9884989697366002E-01 -4.7416324905197004E-16
outer loop
vertex -3.3644638466677906E-01 -1.0618170656531210E-01 4.5530000000000008E+00
vertex -3.3644638466677901E-01 -1.0618170656531209E-01 4.5280000000000005E+00
vertex -6.4985980572849422E-01 -2.5899421311428350E-01 4.5280000000000005E+00
endloop
endfacet
facet normal -4.3825661741774163E-01 8.9884989697366002E-01 0.0000000000000000E+00
outer loop
vertex -6.4985980572849422E-01 -2.5899421311428350E-01 4.5280000000000005E+00
vertex -3.3644638466677901E-01 -1.0618170656531209E-01 4.5280000000000005E+00
vertex -6.4985980572849422E-01 -2.5899421311428350E-01 4.5030000000000001E+00
endloop
endfacet
facet normal -4.3825661741774163E-01 8.9884989697366002E-01 0.0000000000000000E+00
outer loop
vertex -3.3644638466677901E-01 -1.0618170656531209E-01 4.5280000000000005E+00
vertex -3.3644638466677901E-01 -1.0618170656531209E-01 4.5030000000000001E+00
vertex -6.4985980572849422E-01 -2.5899421311428350E-01 4.5030000000000001E+00
endloop
endfacet
facet normal -4.3825661741774163E-01 8.9884989697366002E-01 0.0000000000000000E+00
outer loop
vertex -6.4985980572849422E-01 -2.5899421311428350E-01 4.5030000000000001E+00
vertex -3.3644638466677901E-01 -1.0618170656531209E-01 4.5030000000000001E+00
vertex -6.4985980572849422E-01 -2.5899421311428350E-01 4.4779999999999998E+00
endloop
endfacet
facet normal -4.3825661741774163E-01 8.9884989697366002E-01 0.0000000000000000E+00
outer loop
vertex -3.3644638466677901E-01 -1.0618170656531209E-01 4.5030000000000001E+00
vertex -3.3644638466677901E-01 -1.0618170656531209E-01 4.4779999999999998E+00
vertex -6.4985980572849422E-01 -2.5899421311428350E-01 4.4779999999999998E+00
endloop
endfacet
facet normal -4.3825661741774175E-01 8.9884989697366013E-01 0.0000000000000000E+00
outer loop
vertex -6.4985980572849422E-01 -2.5899421311428350E-01 4.4779999999999998E+00
vertex -3.3644638466677901E-01 -1.0618170656531209E-01 4.4779999999999998E+00
vertex -6.4985980572849422E-01 -2.5899421311428350E-01 4.4530000000000003E+00
endloop
endfacet
facet normal -4.3825661741774175E-01 8.9884989697366013E-01 0.0000000000000000E+00
outer loop
vertex -3.3644638466677901E-01 -1.0618170656531209E-01 4.4779999999999998E+00
vertex -3.3644638466677901E-01 -1.0618170656531209E-01 4.4530000000000003E+00
vertex -6.4985980572849422E-01 -2.5899421311428350E-01 4.4530000000000003E+00
endloop
endfacet
facet normal -4.3825661741774163E-01 8.9884989697366002E-01 0.0000000000000000E+00
outer loop
vertex -6.4985980572849422E-01 -2.5899421311428350E-01 4.4530000000000003E+00
vertex -3.3644638466677901E-01 -1.0618170656531209E-01 4.4530000000000003E+00
vertex -6.4985980572849422E-01 -2.5899421311428350E-01 4.4279999999999999E+00
endloop
endfacet
facet normal -4.3825661741774163E-01 8.9884989697366002E-01 0.0000000000000000E+00
outer loop
vertex -3.3644638466677901E-01 -1.0618170656531209E-01 4.4530000000000003E+00
vertex -3.3644638466677901E-01 -1.0618170656531209E-01 4.4279999999999999E+00
vertex -6.4985980572849422E-01 -2.5899421311428350E-01 4.4279999999999999E+00
endloop
endfacet
facet normal -4.3825661741774175E-01 8.9884989697366013E-01 0.0000000000000000E+00
outer loop
vertex -6.4985980572849422E-01 -2.5899421311428350E-01 4.4279999999999999E+00
vertex -3.3644638466677901E-01 -1.0618170656531209E-01 4.4279999999999999E+00
vertex -6.4985980572849422E-01 -2.5899421311428350E-01 4.4030000000000005E+00
endloop
endfacet
facet normal -4.3825661741774175E-01 8.9884989697366013E-01 0.0000000000000000E+00
outer loop
vertex -3.3644638466677901E-01 -1.0618170656531209E-01 4.4279999999999999E+00
vertex -3.3644638466677901E-01 -1.0618170656531209E-01 4.4030000000000005E+00
vertex -6.4985980572849422E-01 -2.5899421311428350E-01 4.4030000000000005E+00
endloop
endfacet
facet normal -4.3825661741774163E-01 8.9884989697366002E-01 -1.9462503494060331E-15
outer loop
vertex -6.4985980572849422E-01 -2.5899421311428350E-01 4.4030000000000005E+00
vertex -3.3644638466677901E-01 -1.0618170656531209E-01 4.4030000000000005E+00
vertex -6.4985980572849411E-01 -2.5899421311428350E-01 4.3780000000000001E+00
endloop
endfacet
facet normal -4.3825661741774175E-01 8.9884989697365991E-01 0.0000000000000000E+00
outer loop
vertex -3.3644638466677901E-01 -1.0618170656531209E-01 4.4030000000000005E+00
vertex -3.3644638466677901E-01 -1.0618170656531209E-01 4.3780000000000001E+00
vertex -6.4985980572849411E-01 -2.5899421311428350E-01 4.3780000000000001E+00
endloop
endfacet
facet normal -4.3825661741774180E-01 8.9884989697366002E-01 1.9462503494061029E-15
outer loop
vertex -6.4985980572849411E-01 -2.5899421311428350E-01 4.3780000000000001E+00
vertex -3.3644638466677901E-01 -1.0618170656531209E-01 4.3780000000000001E+00
vertex -6.4985980572849422E-01 -2.5899421311428350E-01 4.3530000000000006E+00
endloop
endfacet
facet normal -4.3825661741774175E-01 8.9884989697366013E-01 0.0000000000000000E+00
outer loop
vertex -3.3644638466677901E-01 -1.0618170656531209E-01 4.3780000000000001E+00
vertex -3.3644638466677901E-01 -1.0618170656531209E-01 4.3530000000000006E+00
vertex -6.4985980572849422E-01 -2.5899421311428350E-01 4.3530000000000006E+00
endloop
endfacet
facet normal -4.3825661741774163E-01 8.9884989697366002E-01 0.0000000000000000E+00
outer loop
vertex -6.4985980572849422E-01 -2.5899421311428350E-01 4.3530000000000006E+00
vertex -3.3644638466677901E-01 -1.0618170656531209E-01 4.3530000000000006E+00
vertex -6.4985980572849422E-01 -2.5899421311428350E-01 4.3280000000000003E+00
endloop
endfacet
facet normal -4.3825661741774163E-01 8.9884989697366002E-01 0.0000000000000000E+00
outer loop
vertex -3.3644638466677901E-01 -1.0618170656531209E-01 4.3530000000000006E+00
vertex -3.3644638466677901E-01 -1.0618170656531209E-01 4.3280000000000003E+00
vertex -6.4985980572849422E-01 -2.5899421311428350E-01 4.3280000000000003E+00
endloop
endfacet
facet normal 9.9997260490427131E-01 7.4019889871771048E-03 -2.2244941492190739E-15
outer loop
vertex -3.3644638466677901E-01 -1.0618170656531209E-01 4.5780000000000003E+00
vertex -3.3270000000000000E-01 -6.1229999999999996E-01 4.5780000000000003E+00
vertex -3.3644638466677906E-01 -1.0618170656531210E-01 4.5530000000000008E+00
endloop
endfacet
facet normal 9.9997260490427131E-01 7.4019889871771048E-03 -2.2203852199182810E-15
outer loop
vertex -3.3270000000000000E-01 -6.1229999999999996E-01 4.5780000000000003E+00
vertex -3.3270000000000005E-01 -6.1229999999999996E-01 4.5530000000000008E+00
vertex -3.3644638466677906E-01 -1.0618170656531210E-01 4.5530000000000008E+00
endloop
endfacet
facet normal 9.9997260490427131E-01 7.4019889871771048E-03 2.2244941492189950E-15
outer loop
vertex -3.3644638466677906E-01 -1.0618170656531210E-01 4.5530000000000008E+00
vertex -3.3270000000000005E-01 -6.1229999999999996E-01 4.5530000000000008E+00
vertex -3.3644638466677901E-01 -1.0618170656531209E-01 4.5280000000000005E+00
endloop
endfacet
facet normal 9.9997260490427131E-01 7.4019889871771048E-03 2.2203852199182021E-15
outer loop
vertex -3.3270000000000005E-01 -6.1229999999999996E-01 4.5530000000000008E+00
vertex -3.3270000000000000E-01 -6.1229999999999996E-01 4.5280000000000005E+00
vertex -3.3644638466677901E-01 -1.0618170656531209E-01 4.5280000000000005E+00
endloop
endfacet
facet normal 9.9997260490427131E-01 7.4019889871771048E-03 0.0000000000000000E+00
outer loop
vertex -3.3644638466677901E-01 -1.0618170656531209E-01 4.5280000000000005E+00
vertex -3.3270000000000000E-01 -6.1229999999999996E-01 4.5280000000000005E+00
vertex -3.3644638466677901E-01 -1.0618170656531209E-01 4.5030000000000001E+00
endloop
endfacet
facet normal 9.9997260490427131E-01 7.4019889871771048E-03 0.0000000000000000E+00
outer loop
vertex -3.3270000000000000E-01 -6.1229999999999996E-01 4.5280000000000005E+00
vertex -3.3270000000000000E-01 -6.1229999999999996E-01 4.5030000000000001E+00
vertex -3.3644638466677901E-01 -1.0618170656531209E-01 4.5030000000000001E+00
endloop
endfacet
facet normal 9.9997260490427131E-01 7.4019889871771048E-03 0.0000000000000000E+00
outer loop
vertex -3.3644638466677901E-01 -1.0618170656531209E-01 4.5030000000000001E+00
vertex -3.3270000000000000E-01 -6.1229999999999996E-01 4.5030000000000001E+00
vertex -3.3644638466677901E-01 -1.0618170656531209E-01 4.4779999999999998E+00
endloop
endfacet
facet normal 9.9997260490427131E-01 7.4019889871771048E-03 0.0000000000000000E+00
outer loop
vertex -3.3270000000000000E-01 -6.1229999999999996E-01 4.5030000000000001E+00
vertex -3.3270000000000000E-01 -6.1229999999999996E-01 4.4779999999999998E+00
vertex -3.3644638466677901E-01 -1.0618170656531209E-01 4.4779999999999998E+00
endloop
endfacet
facet normal 9.9997260490427131E-01 7.4019889871771048E-03 0.0000000000000000E+00
outer loop
vertex -3.3644638466677901E-01 -1.0618170656531209E-01 4.4779999999999998E+00
vertex -3.3270000000000000E-01 -6.1229999999999996E-01 4.4779999999999998E+00
vertex -3.3644638466677901E-01 -1.0618170656531209E-01 4.4530000000000003E+00
endloop
endfacet
facet normal 9.9997260490427131E-01 7.4019889871771048E-03 0.0000000000000000E+00
outer loop
vertex -3.3270000000000000E-01 -6.1229999999999996E-01 4.4779999999999998E+00
vertex -3.3270000000000000E-01 -6.1229999999999996E-01 4.4530000000000003E+00
vertex -3.3644638466677901E-01 -1.0618170656531209E-01 4.4530000000000003E+00
endloop
endfacet
facet normal 9.9997260490427131E-01 7.4019889871771048E-03 0.0000000000000000E+00
outer loop
vertex -3.3644638466677901E-01 -1.0618170656531209E-01 4.4530000000000003E+00
vertex -3.3270000000000000E-01 -6.1229999999999996E-01 4.4530000000000003E+00
vertex -3.3644638466677901E-01 -1.0618170656531209E-01 4.4279999999999999E+00
endloop
endfacet
facet normal 9.9997260490427131E-01 7.4019889871771048E-03 0.0000000000000000E+00
outer loop
vertex -3.3270000000000000E-01 -6.1229999999999996E-01 4.4530000000000003E+00
vertex -3.3270000000000000E-01 -6.1229999999999996E-01 4.4279999999999999E+00
vertex -3.3644638466677901E-01 -1.0618170656531209E-01 4.4279999999999999E+00
endloop
endfacet
facet normal 9.9997260490427131E-01 7.4019889871771048E-03 0.0000000000000000E+00
outer loop
vertex -3.3644638466677901E-01 -1.0618170656531209E-01 4.4279999999999999E+00
vertex -3.3270000000000000E-01 -6.1229999999999996E-01 4.4279999999999999E+00
vertex -3.3644638466677901E-01 -1.0618170656531209E-01 4.4030000000000005E+00
endloop
endfacet
facet normal 9.9997260490427131E-01 7.4019889871771048E-03 0.0000000000000000E+00
outer loop
vertex -3.3270000000000000E-01 -6.1229999999999996E-01 4.4279999999999999E+00
vertex -3.3270000000000000E-01 -6.1229999999999996E-01 4.4030000000000005E+00
vertex -3.3644638466677901E-01 -1.0618170656531209E-01 4.4030000000000005E+00
endloop
endfacet
facet normal 9.9997260490427131E-01 7.4019889871771048E-03 0.0000000000000000E+00
outer loop
vertex -3.3644638466677901E-01 -1.0618170656531209E-01 4.4030000000000005E+00
vertex -3.3270000000000000E-01 -6.1229999999999996E-01 4.4030000000000005E+00
vertex -3.3644638466677901E-01 -1.0618170656531209E-01 4.3780000000000001E+00
endloop
endfacet
facet normal 9.9997260490427131E-01 7.4019889871771048E-03 0.0000000000000000E+00
outer loop
vertex -3.3270000000000000E-01 -6.1229999999999996E-01 4.4030000000000005E+00
vertex -3.3270000000000000E-01 -6.1229999999999996E-01 4.3780000000000001E+00
vertex -3.3644638466677901E-01 -1.0618170656531209E-01 4.3780000000000001E+00
endloop
endfacet
facet normal 9.9997260490427131E-01 7.4019889871771048E-03 0.0000000000000000E+00
outer loop
vertex -3.3644638466677901E-01 -1.0618170656531209E-01 4.3780000000000001E+00
vertex -3.3270000000000000E-01 -6.1229999999999996E-01 4.3780000000000001E+00
vertex -3.3644638466677901E-01 -1.0618170656531209E-01 4.3530000000000006E+00
endloop
endfacet
facet normal 9.9997260490427131E-01 7.4019889871771048E-03 0.0000000000000000E+00
outer loop
vertex -3.3270000000000000E-01 -6.1229999999999996E-01 4.3780000000000001E+00
vertex -3.3270000000000000E-01 -6.1229999999999996E-01 4.3530000000000006E+00
vertex -3.3644638466677901E-01 -1.0618170656531209E-01 4.3530000000000006E+00
endloop
endfacet
facet normal 9.9997260490427131E-01 7.4019889871771048E-03 0.0000000000000000E+00
outer loop
vertex -3.3644638466677901E-01 -1.0618170656531209E-01 4.3530000000000006E+00
vertex -3.3270000000000000E-01 -6.1229999999999996E-01 4.3530000000000006E+00
vertex -3.3644638466677901E-01 -1.0618170656531209E-01 4.3280000000000003E+00
endloop
endfacet
facet normal 9.9997260490427131E-01 7.4019889871771048E-03 0.0000000000000000E+00
outer loop
vertex -3.3270000000000000E-01 -6.1229999999999996E-01 4.3530000000000006E+00
vertex -3.3270000000000000E-01 -6.1229999999999996E-01 4.3280000000000003E+00
vertex -3.3644638466677901E-01 -1.0618170656531209E-01 4.3280000000000003E+00
endloop
endfacet
endsolid Created by writeSTL.m 11-Dec-2021 13:02:04
